<svg height="30" viewBox="0 0 30 30" width="30" xmlns="http://www.w3.org/2000/svg"><path d="m9.07518444 20.014572c-.19791067-.4551945-.43045221-1.0142838-.69763162-1.6772845-.2671794-.6630008-.54425018-1.3655731-.83122065-2.1077381h-4.06704393c-.28697047.742165-.56404125 1.4447373-.83122066 2.1077381-.2671794.6630007-.49972095 1.22209-.69763162 1.6772845h-1.00933937c.148433-.3562392.3463407-.8287438.59372904-1.4175281.24738834-.5887842.51456374-1.2344581.80153421-1.937041.28697047-.7025828.58383202-1.4323675.89059356-2.1893758.30676153-.7570083.60362309-1.486793.89059356-2.1893758.28697047-.7025829.55167202-1.3457829.79411259-1.9296194s.44282212-1.05881498.60115065-1.42494972c.148433.36613474.34634071.84111322.59372904 1.42494972.24738834.5838365.51456374 1.2270365.80153421 1.9296194.28697047.7025828.58630587 1.4323675.89801517 2.1893758.31170931.7570083.6110447 1.486793.89801517 2.1893758.28697048.7025829.55167203 1.3482568.7941126 1.937041.24244057.5887843.44282211 1.0612889.60115061 1.4175281zm-3.7108065-8.4903253c-.19791067.4650901-.43292606 1.0340747-.70505323 1.706971s-.5516718 1.3804163-.83864227 2.1225813h3.38425553c-.29686601-.742165-.57888448-1.449685-.84606389-2.1225813-.2671794-.6728963-.49972095-1.2418809-.69763162-1.706971-.01979106-.0395821-.04452953-.106376-.07421613-.2003835-.0296866-.0940076-.05442506-.1805922-.07421613-.2597565-.01979106.0791643-.04452953.1657489-.07421613.2597565-.0296866.0940075-.05442506.1608014-.07421613.2003835zm13.39161076-1.5585387-.3710806.8163774c-.3463437-.1385374-.7297899-.2572821-1.15035-.3562374-.4205602-.0989553-.8287448-.1484323-1.2245662-.1484323-.3562392 0-.6753654.0445293-.9573881.1335891s-.5219858.2127521-.7198964.3710806c-.1979107.1583286-.3488153.3389193-.4527184.5417778-.1039031.2028584-.1558539.4230307-.1558539.6605235 0 .2869705.0791631.5318813.2374916.7347397.1583286.2028585.3661317.3785015.6234155.5269346.2572839.148433.5491978.2844945.8757504.4081887.3265526.1236941.6605218.2498603 1.0019177.3785022.3413959.128642.6753652.2745989 1.0019178.4378752s.6184664.3636578.8757503.6011506c.2572839.2374929.465087.5195113.6234155.8460639s.2374916.722368.2374916 1.1874581-.0841108.8831701-.2523348 1.2542526c-.1682241.3710825-.410661.6877348-.7273181.9499665-.3166571.2622316-.7050509.465087-1.1651932.6085722-.4601424.1434853-.9821239.2152268-1.5659604.2152268-.4156124 0-.7990586-.0371077-1.15035-.1113242s-.6629961-.1632749-.9351232-.267178c-.2721272-.1039031-.5096165-.2102785-.7124749-.3191294s-.3636584-.202857-.4824048-.2820213l.46014-.8905936c.1781196.1088509.3785011.2177001.6011506.326551s.4551911.202857.6976316.2820213c.2424406.0791643.4922991.1434843.749583.1929619.2572838.0494777.5096161.0742162.7570045.0742162.2671794 0 .5615671-.0371077.8831719-.1113242.3216049-.0742165.6184664-.195435.8905936-.3636591.2721272-.168224.499721-.3834487.6827884-.6456803s.2745997-.5813578.2745997-.9573881c0-.46509-.1360616-.8411147-.4081887-1.1280851-.2721272-.2869705-.6110442-.5318813-1.016761-.7347397-.4057169-.2028585-.8460615-.3834492-1.3210471-.5417778-.4749857-.1583285-.9153303-.343867-1.3210472-.556621-.4057168-.2127539-.7446338-.4774555-1.0167609-.7941125-.2721272-.3166571-.4081888-.7273156-.4081888-1.2319878 0-.3562392.0717416-.7001038.2152268-1.0316042.1434853-.3315004.3537622-.6209404.6308371-.8683287.277075-.24738837.6135181-.44529607 1.0093394-.59372907.3958213-.14843301.8411137-.22264839 1.3358903-.22264839.277075 0 .5615673.02226461.8534855.06679451.2919183.0445299.5665152.09895452.8237991.16327549.2572838.06432097.4898254.13111482.6976316.20038355s.3661324.12864104.4749832.17811871zm10.4029147 9.3363892c-.3166571.1979106-.7372109.3859229-1.2616742.5640426-.5244633.1781196-1.1330295.267178-1.8257168.267178-.8213293 0-1.5610093-.1434831-2.2190623-.4304535-.658053-.2869705-1.2171422-.6753644-1.6772845-1.1651933s-.8163762-1.0563397-1.0687123-1.6995494c-.2523361-.6432096-.3785023-1.3259912-.3785023-2.0483651 0-.7817472.1434831-1.509058.4304536-2.1819543.2869705-.6728962.6778382-1.2542501 1.1726148-1.744079.4947767-.4898289 1.0736567-.8732751 1.7366575-1.15035004.6630007-.27707494 1.3705208-.41561033 2.1225813-.41561033.2671794 0 .5368287.01731693.8089558.05195129.2721272.03463437.5318811.08658514.7792694.15585388.2473883.06926873.4749822.14843181.6827884.23749161s.3859231.18801365.5343561.29686449c-.0494776.0791643-.0890592.1434843-.1187458.192962-.0296866.0494776-.0593727.1014284-.0890593.1558538-.0296866.0544255-.0643205.1162716-.1039026.1855404-.0395822.0692687-.0890591.1583272-.1484323.267178-.3166571-.1979106-.6852601-.3463414-1.1058203-.4452967-.4205602-.0989554-.8237971-.1484323-1.2097229-.1484323-.6234187 0-1.2072464.1187446-1.7515007.3562374-.5442544.2374928-1.016759.5615667-1.4175281.9722313-.4007691.4106647-.7174214.8856431-.9499665 1.4249497-.232545.5393066-.3488158 1.1107651-.3488158 1.7143926 0 .573941.1039016 1.1256087.3117078 1.6550197.2078062.5294111.5046677.9944942.8905935 1.3952633s.8460612.7223691 1.3804201.9648097c.5343588.2424405 1.1280819.363659 1.7811871.363659.2869704 0 .5640412-.0222646.8312206-.0667945s.5145641-.1039022.7421613-.1781187c.2275973-.0742165.4279789-.1509058.6011507-.23007.1731718-.0791643.3092334-.1583274.4081887-.2374917z" fill-rule="evenodd" stroke="#000" stroke-linecap="round" stroke-linejoin="round"/></svg>