<svg height="30" viewBox="0 0 30 30" width="30" xmlns="http://www.w3.org/2000/svg"><path d="m2.83686604 8.35795789c.21983806.32397188.49173895.72025296.81571082 1.18885513.32397188.46860218.67686452.97480068 1.05868851 1.51861058.381824.5438099.77521251 1.099182 1.18017736 1.6661327l1.17149958 1.6400994c.37603878.5264543.72025374 1.0095123 1.03265519 1.4491884s.56694696.7983539.76364417 1.0760441c.10413381-.1504155.29215039-.4223164.56405535-.8157108.27190497-.3933945.59008688-.8504194.95455518-1.3710884.3644684-.5206691.7607495-1.0847188 1.1888552-1.6921661s.8475272-1.2033152 1.2582773-1.7876216.7983534-1.1281082 1.1628218-1.63142163c.3644684-.50331345.6624023-.9169499.8938108-1.24092178v12.94723981h-1.2495996v-8.8339746c0-.1041338.0057852-.2140512.0173556-.3297554.0115704-.1157043.0173555-.2140514.0173555-.2950444-.1966972.2776902-.4309947.6103349-.7028997.9979441s-.5582687.8012457-.8590997 1.2409218-.6074427.8880233-.9198441 1.3450551c-.3124015.4570317-.613228.8995938-.9024886 1.3276995-.28926059.4281057-.55826891.8272793-.80703303 1.1975329s-.45413607.6768652-.616122.9198441c-.16198594-.2082676-.3818207-.5062016-.65951088-.8938108s-.58140925-.8214936-.91116634-1.3016662-.67397204-.9776934-1.03265519-1.4925772c-.35868314-.5148839-.69132785-.9979419-.99794408-1.4491884-.30661624-.4512465-.57851713-.8475276-.81571082-1.1888551-.2371937-.3413275-.39628464-.5756251-.47727761-.7028998 0 .080993.00867769.1793401.02603332.2950444.01735564.1157042.02603333.2256216.02603333.3297554v8.8339746h-1.18017736zm25.20826796 12.11417341c-.3702536.2314085-.8619893.4512433-1.4752217.6595109-.6132325.2082677-1.3248029.3123999-2.1347326.3123999-.9603452 0-1.8252214-.1677686-2.5946546-.5033109s-1.4231524-.7896747-1.9611771-1.3624106c-.5380247-.572736-.9545538-1.2351329-1.2495996-1.9872104-.2950458-.7520776-.4425665-1.5504249-.4425665-2.3950659 0-.9140635.1677687-1.7644769.503311-2.5512657.3355423-.7867889.7925672-1.4665411 1.3710884-2.0392771s1.2553808-1.02108317 2.0305992-1.34505504c.7752184-.32397188 1.6024914-.48595538 2.4818436-.48595538.3124014 0 .6276908.02024794.9458774.06074442.3181867.04049648.6219058.1012403.9111664.18223327s.5553763.17355497.7983552.27768879c.2429789.10413381.4512435.21983632.6247998.34711099-.0578521.09256339-.1041331.16777002-.1388444.22562214s-.069422.11859593-.1041333.18223331c-.0347112.0636373-.0752071.1359514-.1214888.2169443-.0462817.080993-.104133.1851252-.1735555.3123999-.3702536-.2314085-.8012454-.4049622-1.2929884-.5206665-.4917431-.11570421-.9632308-.17355546-1.4144773-.17355546-.7289367 0-1.4115815.13884296-2.0479548.41653316-.6363734.2776902-1.1888528.6566159-1.657455 1.1367885s-.8388502 1.0355446-1.1107552 1.6661327c-.2719049.6305882-.4078554 1.2987701-.4078554 2.004566 0 .6710846.1214877 1.3161261.3644666 1.9351437.2429789.6190177.5900864 1.1628195 1.0413329 1.6314217.4512466.4686022.9892632.8446353 1.6140661 1.1281107s1.319018.425211 2.0826659.425211c.3355423 0 .6595094-.0260331.9719108-.0781.3124015-.0520669.6016577-.1214884.8677775-.2082666.2661197-.0867782.5004173-.1764476.7028997-.269011s.3615734-.1851254.4772776-.2776888z" fill-rule="evenodd" stroke="#000" stroke-linejoin="round"/></svg>