<svg height="30" viewBox="0 0 30 30" width="30" xmlns="http://www.w3.org/2000/svg"><g style="stroke:#000;stroke-width:2;fill:none;fill-rule:evenodd;stroke-linecap:round;stroke-linejoin:round" transform="translate(5.183634 3.845039)"><path d="m2.80344551 16.8162538c-1.64414053-.0397346-2.4662108.7614428-2.4662108 2.4035324 0 2.4631343 1.99438595 3.0280896 2.92085887 3.0280896s5.78159898.5950146 2.04752663-7.9549993c-3.73407235-8.55001383-1.7645858-13.5484587 4.41449476-13.5484587"/><path d="m11.8794557 16.8162538c-1.6441406-.0397346-2.46621084.7614428-2.46621084 2.4035324 0 2.4631343 1.99438594 3.0280896 2.92085884 3.0280896.926473 0 5.781599.5950146 2.0475267-7.9549993-3.7340724-8.55001383-1.7645858-13.5484587 4.4144947-13.5484587" transform="matrix(-1 0 0 1 28.20937 0)"/></g></svg>