<?xml version="1.0" encoding="UTF-8" standalone="no"?>
<svg
   xmlns:dc="http://purl.org/dc/elements/1.1/"
   xmlns:cc="http://creativecommons.org/ns#"
   xmlns:rdf="http://www.w3.org/1999/02/22-rdf-syntax-ns#"
   xmlns:svg="http://www.w3.org/2000/svg"
   xmlns="http://www.w3.org/2000/svg"
   xmlns:sodipodi="http://sodipodi.sourceforge.net/DTD/sodipodi-0.dtd"
   xmlns:inkscape="http://www.inkscape.org/namespaces/inkscape"
   height="30"
   viewBox="0 0 30 30"
   width="30"
   version="1.1"
   id="svg3877"
   sodipodi:docname="sorthnode.svg"
   inkscape:version="0.92.3 (2405546, 2018-03-11)">
  <metadata
     id="metadata3883">
    <rdf:RDF>
      <cc:Work
         rdf:about="">
        <dc:format>image/svg+xml</dc:format>
        <dc:type
           rdf:resource="http://purl.org/dc/dcmitype/StillImage" />
        <dc:title></dc:title>
      </cc:Work>
    </rdf:RDF>
  </metadata>
  <defs
     id="defs3881" />
  <sodipodi:namedview
     pagecolor="#ffffff"
     bordercolor="#666666"
     borderopacity="1"
     objecttolerance="10"
     gridtolerance="10"
     guidetolerance="10"
     inkscape:pageopacity="0"
     inkscape:pageshadow="2"
     inkscape:window-width="1853"
     inkscape:window-height="1025"
     id="namedview3879"
     showgrid="false"
     inkscape:zoom="7.8666667"
     inkscape:cx="15"
     inkscape:cy="15"
     inkscape:window-x="67"
     inkscape:window-y="27"
     inkscape:window-maximized="1"
     inkscape:current-layer="svg3877" />
  <g
     style="fill:none;fill-rule:evenodd;stroke:#000000;stroke-width:2;stroke-linecap:round;stroke-linejoin:round"
     transform="rotate(180,12.158496,13.423107)"
     id="g3875">
    <path
       d="m 2.8034455,16.816254 c -1.6441405,-0.03974 -2.46621079,0.761443 -2.46621079,2.403532 0,2.463134 1.99438599,3.02809 2.92085889,3.02809 0.9264729,0 5.781599,0.595014 2.0475266,-7.955 C 1.5715479,5.7428627 3.5410344,0.7444178 9.720115,0.7444178"
       id="path3871"
       inkscape:connector-curvature="0" />
    <path
       d="m 11.879456,16.816254 c -1.644141,-0.03974 -2.4662111,0.761443 -2.4662111,2.403532 0,2.463134 1.9943861,3.02809 2.9208591,3.02809 0.926473,0 5.781599,0.595014 2.047526,-7.955 C 10.647558,5.7428627 12.617045,0.7444178 18.796125,0.7444178"
       transform="matrix(-1,0,0,1,28.20937,0)"
       id="path3873"
       inkscape:connector-curvature="0" />
  </g>
</svg>
